<svg width="25" height="27" viewBox="0 0 25 27" fill="none" xmlns="http://www.w3.org/2000/svg">
<g clip-path="url(#clip0_9_248)">
<path fill-rule="evenodd" clip-rule="evenodd" d="M8.15645 13.7511L8.12593 15.8725H11.5093C12.2255 15.8725 12.8114 16.5358 12.8114 17.3466V18.8208H12.7972V24.5884C12.7972 25.3992 12.2112 26.0625 11.4951 26.0625H10.193V19.3551C10.193 18.7471 10.2947 18.8208 9.77591 18.8208H6.42509V18.8116H4.75476C3.67647 18.8116 2.79553 17.8142 2.79553 16.5934V9.33092C2.79553 8.0894 3.69274 7.07593 4.78731 7.07593H5.77404C7.16158 7.07593 7.46268 7.80839 7.79227 8.59384L9.55619 9.55204C10.7626 10.167 10.4514 10.2891 11.2692 9.14204L12.1807 7.86137L11.1696 7.18879C10.9783 7.23025 10.7382 7.1934 10.5063 7.07132C10.077 6.84329 9.83288 6.40565 9.96309 6.09469C10.0913 5.78374 10.545 5.71464 10.9742 5.94267C11.3404 6.13846 11.5724 6.48627 11.55 6.77649L12.5266 7.42604C13.2305 6.90778 14.8256 7.84755 14.028 9.27333L12.4859 11.655C11.843 12.6478 10.9885 12.7883 9.95495 12.2999L8.15645 11.5836V13.7511ZM24.8841 13.1637H18.3697L18.8763 12.4635C18.9556 12.5326 19.0451 12.5879 19.1387 12.6293C19.2526 12.6777 19.3788 12.7053 19.507 12.7053C19.7979 12.7053 20.0603 12.5694 20.2516 12.3506C20.4428 12.1318 20.5588 11.8324 20.5588 11.4984C20.5588 11.1667 20.4408 10.865 20.2516 10.6461C20.0603 10.4273 19.7979 10.2914 19.507 10.2914C19.216 10.2914 18.9536 10.4273 18.7623 10.6461C18.5894 10.8442 18.4755 11.1137 18.4571 11.4109C16.8621 11.4109 15.265 11.4109 13.67 11.4109C13.6476 11.4109 13.6252 11.4201 13.6069 11.4385C13.5703 11.4776 13.5703 11.5421 13.6049 11.5836L14.8215 13.1614H12.1461C12.083 13.1614 12.0301 13.2213 12.0301 13.2927V15.1722C12.0301 15.2436 12.083 15.3035 12.1461 15.3035C14.3658 15.3035 15.444 15.3035 17.6657 15.3035V26.8203C17.6657 26.9148 17.7349 26.9931 17.8183 26.9931H17.8773H17.8814H19.511H19.5151H19.5741C19.6575 26.9931 19.7267 26.9148 19.7267 26.8203V15.3035C21.1915 15.3035 23.4193 15.3035 24.8841 15.3035C24.9472 15.3035 25.0001 15.2436 25.0001 15.1722V13.2927C25.0001 13.2213 24.9472 13.1637 24.8841 13.1637ZM0.36226 11.6688H1.31237C1.50565 11.6688 1.63383 11.8508 1.66434 12.0673C2.02445 14.6286 2.21773 17.1923 2.20756 19.7536H8.7078C8.96415 19.7536 9.1737 19.9909 9.1737 20.2811V21.3476H8.80139V26.8019C8.80139 26.8894 8.73628 26.9631 8.65897 26.9631H7.41385C7.33654 26.9631 7.27144 26.8917 7.27144 26.8019V24.4294H1.95121C1.8739 25.1527 1.77828 25.876 1.66434 26.5992C1.62976 26.8157 1.50565 26.9977 1.31237 26.9977H0.36226C0.168982 26.9977 -0.044641 26.8088 0.0102907 26.5992C1.26355 21.6631 1.00109 16.8376 0.0102907 12.0673C-0.0365029 11.8531 0.166948 11.6688 0.36226 11.6688ZM7.2694 23.6947V21.3499H2.18721C2.15873 22.3472 2.09769 22.6973 2.00411 23.697H7.2694V23.6947ZM5.71097 0C7.21651 0 8.43721 1.38202 8.43721 3.0865C8.43721 4.79099 7.21651 6.17301 5.71097 6.17301C4.20544 6.17301 2.98474 4.79099 2.98474 3.0865C2.98677 1.38202 4.20747 0 5.71097 0Z" fill="#FFAD23"/>
</g>
<defs>
<clipPath id="clip0_9_248">
<rect width="25" height="27" fill="white"/>
</clipPath>
</defs>
</svg>
