<svg width="25" height="27" viewBox="0 0 25 27" fill="none" xmlns="http://www.w3.org/2000/svg">
<g clip-path="url(#clip0_9_253)">
<path d="M17.1766 18.3174L17.2346 18.3569C17.2989 18.3437 17.3663 18.3437 17.4306 18.3569L21.1255 19.1941C22.2605 19.5171 23.2298 19.9433 23.9147 20.5432C24.2868 20.8692 24.5741 21.2506 24.7599 21.6655C24.9457 22.0803 25.0264 22.5204 24.9972 22.9602V26.6648C24.9965 26.7534 24.9521 26.8382 24.8736 26.9011C24.7951 26.964 24.6888 26.9998 24.5774 27.001H0.422468C0.310635 27.0004 0.203587 26.9648 0.124507 26.9019C0.0454272 26.8389 0.000680264 26.7538 -4.3601e-05 26.6648V23.3865C-0.0026083 22.5504 0.277838 21.7291 0.811842 21.009C1.3675 20.3128 2.16717 19.7613 3.11218 19.4226L3.18122 19.4006L7.53061 18.4294C7.59324 18.4175 7.65853 18.4175 7.72115 18.4294H7.74325C8.14113 18.1947 8.47785 17.9007 8.73463 17.5637C8.84873 17.4219 8.95291 17.2752 9.04668 17.1243C8.6108 16.7473 8.21975 16.3391 7.87856 15.9048L6.65245 14.3667C6.26257 13.9544 6.02192 13.465 5.95654 12.9516C5.9405 12.7773 5.98322 12.6027 6.08031 12.4459C6.1774 12.2891 6.32534 12.1557 6.50885 12.0596C6.60138 12.0093 6.70161 11.9687 6.80709 11.9387C6.78971 11.6829 6.79894 11.4264 6.83471 11.1719C6.82628 11.1489 6.82073 11.1254 6.81814 11.1015L6.46743 8.68456C4.10357 7.94847 2.97963 6.70702 2.74766 5.4392C2.64643 4.86346 2.71836 4.27683 2.95754 3.72753C3.38567 2.72317 4.27375 1.88406 5.44476 1.37747C6.61577 0.870873 7.9837 0.733999 9.27589 0.994128C10.3805 0.334949 11.5403 -0.0429809 12.725 0.00535891C13.7716 0.0471069 14.8127 0.41405 15.7986 1.19847C16.6303 0.871745 17.5633 0.744125 18.4844 0.831103C19.4054 0.918081 20.275 1.21592 20.9875 1.68846C21.6595 2.12538 22.1866 2.68667 22.5229 3.32323C22.8677 3.96167 22.9861 4.66308 22.8653 5.35131C22.603 6.71581 21.3492 8.04296 18.6402 8.76805L18.2619 11.1389C18.2578 11.1696 18.2495 11.1998 18.237 11.229L18.364 12.0024C18.5217 12.0341 18.6653 12.0996 18.7793 12.1918C18.8932 12.2841 18.9731 12.3994 19.0102 12.5254C19.1096 12.833 19.0102 13.2615 18.6733 13.8437C18.668 13.8551 18.6616 13.8662 18.654 13.8767L17.2567 15.7026C16.8836 16.201 16.4488 16.6684 15.9588 17.0979C16.0419 17.2378 16.1341 17.3742 16.2349 17.5066C16.4777 17.8171 16.7948 18.0866 17.1683 18.2998L17.1766 18.3174ZM7.85647 11.4465L7.91998 12.5781C7.7864 12.5857 7.65218 12.582 7.51956 12.5671C7.07496 12.5803 6.69111 12.6814 6.70768 13.0769C6.77021 13.4574 6.96106 13.8173 7.25998 14.1184L8.42534 15.5488C8.85827 16.0888 9.38547 16.5771 9.99112 16.999C10.6891 17.4511 11.5627 17.6965 12.4627 17.6933C13.411 17.7077 14.3343 17.4504 15.064 16.9682C15.6917 16.5124 16.2347 15.9879 16.6767 15.4104L17.9912 13.7405C18.2342 13.301 18.3254 13.022 18.2674 12.8616C18.1514 12.5847 17.3229 12.7187 17.0413 12.6902L17.3174 11.5124C14.3985 10.5566 11.2421 10.5632 7.8399 11.4487L7.85647 11.4465ZM17.4721 10.0403L17.7482 8.44506C17.7584 8.37382 17.7939 8.30639 17.8507 8.25071C17.9075 8.19504 17.983 8.15345 18.0686 8.13085C20.5732 7.5244 21.711 6.39501 21.9347 5.24584C22.0321 4.69251 21.9365 4.12854 21.6585 3.61547C21.3838 3.09181 20.9513 2.63 20.3993 2.27074C19.7832 1.86497 19.0255 1.61937 18.2285 1.56711C17.4314 1.51485 16.6334 1.65844 15.9422 1.9785C15.8486 2.02363 15.7383 2.04152 15.63 2.02909C15.5217 2.01667 15.4222 1.97471 15.3485 1.91039C14.4703 1.14354 13.57 0.789783 12.6808 0.754626C11.6756 0.712878 10.6539 1.07103 9.66526 1.69506C9.60683 1.73084 9.53869 1.75525 9.46628 1.76631C9.39386 1.77738 9.3192 1.7748 9.24827 1.75878C8.4622 1.56368 7.62267 1.55014 6.8273 1.71973C6.03194 1.88932 5.31341 2.23507 4.75529 2.71678C4.34617 3.06714 4.03385 3.48181 3.83846 3.93407C3.64647 4.37249 3.58872 4.84103 3.67001 5.30077C3.86608 6.37303 4.87679 7.41893 7.05011 8.03197C7.13467 8.05615 7.20888 8.09892 7.26411 8.15532C7.31935 8.21171 7.35335 8.27942 7.36216 8.35057L7.61622 10.0469C10.8493 9.38768 14.239 9.38768 17.4721 10.0469V10.0403ZM8.71254 8.36815C8.68507 8.27141 8.70703 8.16996 8.77358 8.0861C8.84013 8.00225 8.94581 7.94286 9.06739 7.92101C9.18897 7.89915 9.31648 7.91662 9.42187 7.96957C9.52726 8.02253 9.6019 8.10662 9.62936 8.20336L9.88066 8.77025C9.89974 8.86465 9.87287 8.96129 9.80552 9.04048C9.73818 9.11967 9.63542 9.17545 9.51819 9.19646C9.40095 9.21747 9.27806 9.20213 9.17455 9.15356C9.07104 9.10499 8.9947 9.02684 8.96107 8.93505L8.71254 8.36815ZM7.5886 2.67284C7.70835 2.64516 7.83701 2.65646 7.94628 2.70426C8.00039 2.72793 8.04811 2.75985 8.08671 2.79819C8.12532 2.83653 8.15405 2.88054 8.17128 2.92772C8.18851 2.9749 8.19388 3.02432 8.18711 3.07315C8.18033 3.12198 8.16154 3.16927 8.13179 3.21232C8.10204 3.25537 8.06193 3.29334 8.01374 3.32406C7.96556 3.35477 7.91024 3.37764 7.85094 3.39134C7.26347 3.50778 6.72694 3.74934 6.29897 4.09008C5.92802 4.42445 5.71003 4.84879 5.68039 5.29418C5.66977 5.39354 5.60998 5.48547 5.51417 5.54975C5.41837 5.61403 5.29439 5.6454 5.16951 5.63695C5.04464 5.6285 4.9291 5.58093 4.84831 5.50469C4.76752 5.42846 4.7281 5.32981 4.73872 5.23046C4.78588 4.6197 5.09151 4.03963 5.60583 3.5847C6.14882 3.14149 6.83489 2.82597 7.5886 2.67284ZM9.73706 17.6318C9.66526 17.7373 9.5907 17.8515 9.51338 17.9372C9.2733 18.2405 8.98563 18.5181 8.65731 18.7634C9.94309 19.2026 11.3285 19.427 12.7278 19.4226C13.571 19.4188 14.4088 19.3144 15.2131 19.1128C15.5743 18.99 15.9217 18.843 16.2515 18.6733C15.9478 18.4513 15.6831 18.1978 15.4644 17.9197C15.3954 17.834 15.3291 17.7461 15.2656 17.6516C14.5393 18.1284 13.6501 18.3306 12.471 18.3306C11.2918 18.3306 10.4551 18.1108 9.7343 17.6318H9.73706ZM12.0346 16.4805C12.0045 16.4832 11.974 16.4808 11.945 16.4735C11.9161 16.4662 11.8895 16.4541 11.8668 16.438C11.8442 16.4219 11.8261 16.4022 11.8137 16.3802C11.8013 16.3582 11.7949 16.3343 11.7949 16.3102C11.7949 16.286 11.8013 16.2622 11.8137 16.2401C11.8261 16.2181 11.8442 16.1984 11.8668 16.1823C11.8895 16.1662 11.9161 16.1541 11.945 16.1468C11.974 16.1395 12.0045 16.1371 12.0346 16.1399L12.9791 16.1069C13.0074 16.1063 13.0355 16.1102 13.0619 16.1183C13.0884 16.1263 13.1125 16.1385 13.133 16.154C13.1535 16.1695 13.17 16.1881 13.1815 16.2086C13.193 16.2292 13.1993 16.2514 13.2 16.2739C13.2011 16.2963 13.1966 16.3187 13.1868 16.3397C13.1769 16.3607 13.1619 16.3799 13.1427 16.3963C13.1234 16.4126 13.1002 16.4258 13.0745 16.4349C13.0488 16.4441 13.0211 16.4491 12.9929 16.4497L12.0346 16.4805ZM11.833 14.2524C11.7722 14.234 11.7222 14.198 11.6931 14.1516C11.664 14.1053 11.6579 14.0519 11.676 14.0021C11.6941 13.9523 11.735 13.9097 11.7907 13.8828C11.8464 13.8559 11.9128 13.8467 11.9766 13.8569C12.4931 13.9778 12.529 13.969 12.9653 13.8415L13.0095 13.8306C13.0413 13.8212 13.0751 13.817 13.1089 13.8181C13.1428 13.8192 13.176 13.8257 13.2068 13.8371C13.2375 13.8485 13.2651 13.8646 13.2879 13.8845C13.3108 13.9044 13.3284 13.9277 13.3399 13.9531C13.3514 13.9784 13.3565 14.0054 13.3548 14.0323C13.3531 14.0592 13.3448 14.0856 13.3302 14.11C13.3157 14.1344 13.2952 14.1562 13.27 14.1742C13.2448 14.1922 13.2154 14.2061 13.1834 14.2151L13.1392 14.2283C12.5483 14.3974 12.5096 14.4084 11.833 14.2524ZM14.6912 11.9277C14.8005 11.9277 14.9072 11.9535 14.9981 12.0018C15.0889 12.0501 15.1597 12.1187 15.2015 12.199C15.2433 12.2793 15.2542 12.3677 15.2329 12.4529C15.2116 12.5382 15.159 12.6165 15.0818 12.6779C15.0045 12.7394 14.9061 12.7812 14.799 12.7982C14.6918 12.8151 14.5808 12.8064 14.4799 12.7732C14.3789 12.7399 14.2927 12.6836 14.232 12.6113C14.1713 12.5391 14.1389 12.4541 14.1389 12.3672C14.1389 12.2506 14.1971 12.1388 14.3007 12.0564C14.4043 11.974 14.5447 11.9277 14.6912 11.9277ZM10.5821 11.9277C10.6913 11.9277 10.7981 11.9535 10.8889 12.0018C10.9798 12.0501 11.0505 12.1187 11.0923 12.199C11.1341 12.2793 11.1451 12.3677 11.1238 12.4529C11.1025 12.5382 11.0499 12.6165 10.9726 12.6779C10.8954 12.7394 10.797 12.7812 10.6898 12.7982C10.5827 12.8151 10.4716 12.8064 10.3707 12.7732C10.2698 12.7399 10.1835 12.6836 10.1229 12.6113C10.0622 12.5391 10.0298 12.4541 10.0298 12.3672C10.0298 12.2506 10.088 12.1388 10.1915 12.0564C10.2951 11.974 10.4356 11.9277 10.5821 11.9277ZM14.3046 15.6015C14.1064 15.6548 13.9045 15.6988 13.6998 15.7334C13.5101 15.7775 13.3146 15.804 13.1172 15.8125C12.94 15.8215 12.7636 15.787 12.6118 15.7136C12.5727 15.6925 12.5358 15.669 12.5013 15.6433C12.4659 15.669 12.428 15.6925 12.3881 15.7136C12.2364 15.787 12.06 15.8215 11.8828 15.8125C11.6854 15.804 11.4898 15.7775 11.3001 15.7334C11.0964 15.6988 10.8954 15.6547 10.6981 15.6015C10.5045 15.5489 10.3146 15.4881 10.1292 15.4192C10.1082 15.4127 10.0892 15.4026 10.0735 15.3898C10.0578 15.377 10.0458 15.3616 10.0382 15.3447C10.0306 15.3278 10.0276 15.3099 10.0295 15.292C10.0314 15.2742 10.0381 15.2568 10.0491 15.2412C10.062 15.2218 10.0805 15.2051 10.103 15.1925C10.1256 15.1799 10.1516 15.1717 10.1789 15.1687L10.4302 15.1401C10.6511 15.1228 10.8683 15.0829 11.0764 15.0215C11.1371 15.0017 11.2007 14.9797 11.2614 14.9556C11.6204 14.8237 12.0098 14.6809 12.3992 14.927C12.433 14.9474 12.4644 14.9702 12.4931 14.9951C12.5214 14.9707 12.5519 14.948 12.5842 14.927C12.9736 14.6809 13.3657 14.8237 13.7219 14.9556C13.7854 14.9797 13.8462 15.0017 13.9097 15.0215C14.1177 15.0832 14.3349 15.1231 14.5559 15.1401L14.8072 15.1687C14.8348 15.1719 14.8611 15.1801 14.8841 15.1927C14.9071 15.2052 14.9261 15.2218 14.9398 15.2412C14.9499 15.257 14.9559 15.2742 14.9573 15.2919C14.9588 15.3096 14.9556 15.3273 14.9481 15.344C14.9406 15.3607 14.9289 15.3759 14.9137 15.3889C14.8985 15.4018 14.8801 15.4121 14.8597 15.4192C14.6786 15.4873 14.4934 15.5482 14.3046 15.6015ZM12.5814 20.0993H12.3053C10.9858 20.1207 9.67845 19.8949 8.48885 19.4402C8.18785 19.3435 7.88961 19.2336 7.59689 19.115L3.4408 20.04C2.65829 20.3248 1.99502 20.7824 1.52984 21.3584C1.07417 21.9771 0.837519 22.6825 0.84498 23.3996V26.3264H8.54409V23.9929C8.5056 23.4022 8.64674 22.8127 8.95555 22.2746C9.29901 21.7676 9.77898 21.3272 10.3612 20.9848C10.387 20.9665 10.4158 20.951 10.4468 20.9387L12.5842 20.0993H12.5814ZM12.3743 24.5466C12.5114 24.5466 12.6454 24.579 12.7594 24.6396C12.8734 24.7002 12.9622 24.7863 13.0147 24.8871C13.0671 24.9879 13.0809 25.0987 13.0541 25.2057C13.0274 25.3127 12.9614 25.411 12.8644 25.4881C12.7675 25.5652 12.644 25.6178 12.5095 25.639C12.3751 25.6603 12.2357 25.6494 12.1091 25.6077C11.9824 25.5659 11.8741 25.4952 11.798 25.4045C11.7218 25.3138 11.6812 25.2072 11.6812 25.0981C11.6808 25.0256 11.6985 24.9538 11.7332 24.8867C11.7679 24.8197 11.8189 24.7588 11.8834 24.7075C11.9478 24.6562 12.0244 24.6156 12.1086 24.588C12.1929 24.5604 12.2832 24.5463 12.3743 24.5466ZM12.3743 22.2505C12.5114 22.2505 12.6454 22.2828 12.7594 22.3434C12.8734 22.404 12.9622 22.4902 13.0147 22.5909C13.0671 22.6917 13.0809 22.8026 13.0541 22.9096C13.0274 23.0166 12.9614 23.1148 12.8644 23.192C12.7675 23.2691 12.644 23.3216 12.5095 23.3429C12.3751 23.3642 12.2357 23.3533 12.1091 23.3115C11.9824 23.2698 11.8741 23.1991 11.798 23.1084C11.7218 23.0177 11.6812 22.9111 11.6812 22.802C11.6812 22.6557 11.7542 22.5154 11.8842 22.412C12.0142 22.3086 12.1905 22.2505 12.3743 22.2505ZM15.1358 19.8335C15.1127 19.8497 15.0866 19.863 15.0585 19.873L10.8638 21.5342C10.3921 21.8135 10.0013 22.1702 9.71773 22.5801C9.46838 23.0219 9.3557 23.5049 9.38911 23.9885V26.3286H24.1549V22.9536C24.1807 22.5977 24.1176 22.2412 23.9693 21.9048C23.8209 21.5684 23.5902 21.2587 23.2906 20.9936C22.6087 20.4542 21.7717 20.0552 20.8522 19.8313L17.3975 19.0491C16.7041 19.4017 15.947 19.6677 15.1524 19.8379L15.1358 19.8335Z" fill="#FFAD23"/>
</g>
<defs>
<clipPath id="clip0_9_253">
<rect width="25" height="27" fill="white"/>
</clipPath>
</defs>
</svg>
