<svg width="52" height="52" viewBox="0 0 52 52" fill="none" xmlns="http://www.w3.org/2000/svg">
<g clip-path="url(#clip0_6_35)">
<path d="M26 52C40.3594 52 52 40.3594 52 26C52 11.6406 40.3594 0 26 0C11.6406 0 0 11.6406 0 26C0 40.3594 11.6406 52 26 52Z" fill="#FCD063"/>
<path d="M42.6823 6.06776C46.4653 10.5836 48.75 16.3979 48.75 22.75C48.75 37.1085 37.1085 48.75 22.75 48.75C16.3979 48.75 10.5836 46.4653 6.06776 42.6823C10.8371 48.3763 17.992 52 26 52C40.3585 52 52 40.3585 52 26C52 17.992 48.3763 10.8371 42.6823 6.06776Z" fill="#F7B84E"/>
<path d="M34.8644 30.875H17.1356C16.6465 30.875 16.25 31.239 16.25 31.6875C16.25 36.6161 20.6229 40.625 26 40.625C31.3771 40.625 35.75 36.6161 35.75 31.6875C35.75 31.239 35.3535 30.875 34.8644 30.875Z" fill="#C98E3F"/>
<path d="M35.685 32.5C35.7142 32.2303 35.75 31.9638 35.75 31.6875C35.75 31.239 35.3535 30.875 34.8644 30.875H17.1356C16.6465 30.875 16.25 31.239 16.25 31.6875C16.25 31.9638 16.2857 32.2303 16.315 32.5H35.685Z" fill="#AB7934"/>
<path d="M41.4375 30.875C42.7837 30.875 43.875 29.7837 43.875 28.4375C43.875 27.0913 42.7837 26 41.4375 26C40.0913 26 39 27.0913 39 28.4375C39 29.7837 40.0913 30.875 41.4375 30.875Z" fill="#F7B84E"/>
<path d="M10.5625 30.875C11.9087 30.875 13 29.7837 13 28.4375C13 27.0913 11.9087 26 10.5625 26C9.21631 26 8.125 27.0913 8.125 28.4375C8.125 29.7837 9.21631 30.875 10.5625 30.875Z" fill="#F7B84E"/>
<path d="M16.25 26C15.99 26 15.7316 25.9025 15.5334 25.7091L10.8891 21.1461C10.1546 20.4246 9.75 19.4659 9.75 18.4454C9.75 17.4249 10.1546 16.4645 10.8891 15.7414C11.6236 15.0231 12.6003 14.625 13.6403 14.625C14.6136 14.625 15.5334 15.4781 16.25 16.1184C16.9666 15.4781 17.888 14.625 18.863 14.625C19.903 14.625 20.878 15.0231 21.6125 15.743C22.3486 16.4661 22.75 17.4249 22.75 18.447C22.75 19.4675 22.347 20.4262 21.6125 21.1477L16.9683 25.7107C16.77 25.9025 16.5116 26 16.25 26Z" fill="#F15642"/>
<path d="M10.8891 17.368C11.6236 16.6481 12.6003 16.25 13.6402 16.25C14.6136 16.25 15.535 17.1031 16.2516 17.7434C16.9666 17.1031 17.888 16.25 18.863 16.25C19.903 16.25 20.878 16.6481 21.6125 17.368C22.1487 17.8945 22.5014 18.5494 22.6574 19.2579C22.7159 18.993 22.7516 18.7233 22.7516 18.4454C22.7516 17.4249 22.3486 16.4645 21.6141 15.7414C20.878 15.0231 19.903 14.625 18.863 14.625C17.888 14.625 16.9666 15.4781 16.2516 16.1184C15.5334 15.4781 14.6136 14.625 13.6402 14.625C12.6003 14.625 11.6236 15.0231 10.8891 15.743C10.1546 16.4645 9.75 17.4249 9.75 18.4454C9.75 18.7216 9.78575 18.993 9.84425 19.2579C9.99863 18.5478 10.3545 17.8945 10.8891 17.368Z" fill="#DA4E3C"/>
<path d="M35.75 26C35.49 26 35.2332 25.9025 35.0334 25.7091L30.3907 21.1461C29.6546 20.4246 29.25 19.4659 29.25 18.4454C29.25 17.4249 29.6546 16.4645 30.3891 15.7414C31.122 15.0231 32.1002 14.625 33.1402 14.625C34.112 14.625 35.0334 15.4781 35.75 16.1184C36.4666 15.4781 37.388 14.625 38.3614 14.625C39.403 14.625 40.3764 15.0231 41.1109 15.743C41.8454 16.4661 42.2484 17.4249 42.2484 18.447C42.2484 19.4675 41.8454 20.4262 41.1109 21.1477L36.4666 25.7107C36.27 25.9025 36.01 26 35.75 26Z" fill="#F15642"/>
<path d="M30.3891 17.368C31.122 16.6481 32.1002 16.25 33.1402 16.25C34.1136 16.25 35.0334 17.1031 35.75 17.7434C36.4666 17.1031 37.388 16.25 38.3614 16.25C39.403 16.25 40.3764 16.6481 41.1109 17.368C41.6455 17.8945 42.0014 18.5494 42.1557 19.2579C42.2142 18.993 42.25 18.7233 42.25 18.4454C42.25 17.4249 41.847 16.4645 41.1125 15.7414C40.378 15.0231 39.403 14.625 38.3614 14.625C37.3864 14.625 36.4666 15.4781 35.75 16.1184C35.0334 15.4781 34.112 14.625 33.1402 14.625C32.1002 14.625 31.1236 15.0231 30.3907 15.743C29.6546 16.4645 29.25 17.4249 29.25 18.4454C29.25 18.7216 29.2841 18.993 29.3443 19.2579C29.4986 18.5478 29.8529 17.8945 30.3891 17.368Z" fill="#DA4E3C"/>
</g>
<defs>
<clipPath id="clip0_6_35">
<rect width="52" height="52" fill="white"/>
</clipPath>
</defs>
</svg>
