<svg width="25" height="27" viewBox="0 0 25 27" fill="none" xmlns="http://www.w3.org/2000/svg">
<g clip-path="url(#clip0_67_9)">
<path fill-rule="evenodd" clip-rule="evenodd" d="M19.9075 0C19.076 8.64844 7.69056 2.96631 3.36636 10.1689C2.75475 11.3423 2.34786 12.4299 2.15326 13.4297C1.83482 13.7703 1.54165 14.1372 1.28134 14.5283C-0.0379087 16.5168 -0.305802 18.78 0.326022 20.8367C0.960373 22.8911 2.49444 24.7368 4.78164 25.8838C7.06884 27.0308 9.67196 27.2637 12.0375 26.7144C14.4005 26.1628 16.5235 24.8291 17.8427 22.8406C18.4265 21.9617 18.8031 21.03 18.9901 20.0852C20.3346 19.4041 21.5224 18.4416 22.4323 17.1672C23.9689 14.0647 21.1661 11.5906 25.0025 9.40649C22.6319 8.36939 21.1863 9.44165 19.8014 11.5378C18.3027 14.3679 12.6895 11.0171 17.9514 9.27686C22.4727 7.78272 22.0608 3.17505 19.9075 0ZM9.35605 18.657C9.38385 18.657 9.41417 18.657 9.44197 18.6592L12.735 16.5146C13.1167 16.2664 13.66 16.3323 13.9456 16.6641C14.2312 16.9958 14.1554 17.4683 13.7738 17.7166L10.5135 19.8413C10.4226 20.3269 9.93985 20.6982 9.35605 20.6982C8.70906 20.6982 8.18338 20.2412 8.18338 19.6787C8.18338 19.571 8.2036 19.4678 8.23898 19.3689L4.88526 17.1145C4.67297 16.9717 4.63506 16.708 4.79681 16.5234C4.96108 16.3389 5.26436 16.3059 5.47665 16.4465L8.8885 18.7405C9.03255 18.6877 9.18924 18.657 9.35605 18.657ZM13.6373 12.5486C17.6961 14.5854 18.9648 18.7009 16.6195 22.2297C14.2767 25.7585 9.54307 26.8616 5.48423 24.8247C1.4254 22.7878 0.156693 18.6724 2.50202 15.1436C4.84735 11.6147 9.57845 10.5117 13.6373 12.5486Z" fill="#FFAD23"/>
</g>
<defs>
<clipPath id="clip0_67_9">
<rect width="25" height="27" fill="white"/>
</clipPath>
</defs>
</svg>
