<svg width="158" height="48" viewBox="0 0 158 48" fill="none" xmlns="http://www.w3.org/2000/svg">
<path d="M55.4307 9.17578C55.4307 8.6543 55.5303 8.16504 55.7295 7.70801C55.9287 7.25098 56.1982 6.85254 56.5381 6.5127C56.8838 6.16699 57.2852 5.89453 57.7422 5.69531C58.1992 5.49609 58.6885 5.39648 59.21 5.39648H64.9932V7.91895H59.21C59.0342 7.91895 58.8701 7.95117 58.7178 8.01562C58.5654 8.08008 58.4307 8.1709 58.3135 8.28809C58.2021 8.39941 58.1143 8.53125 58.0498 8.68359C57.9854 8.83594 57.9531 9 57.9531 9.17578C57.9531 9.35156 57.9854 9.51855 58.0498 9.67676C58.1143 9.8291 58.2021 9.96387 58.3135 10.0811C58.4307 10.1924 58.5654 10.2803 58.7178 10.3447C58.8701 10.4092 59.0342 10.4414 59.21 10.4414H61.7324C62.2539 10.4414 62.7432 10.541 63.2002 10.7402C63.6631 10.9336 64.0645 11.2031 64.4043 11.5488C64.75 11.8887 65.0195 12.29 65.2129 12.7529C65.4121 13.21 65.5117 13.6992 65.5117 14.2207C65.5117 14.7422 65.4121 15.2314 65.2129 15.6885C65.0195 16.1455 64.75 16.5469 64.4043 16.8926C64.0645 17.2324 63.6631 17.502 63.2002 17.7012C62.7432 17.9004 62.2539 18 61.7324 18H56.1338V15.4775H61.7324C61.9082 15.4775 62.0723 15.4453 62.2246 15.3809C62.377 15.3164 62.5088 15.2285 62.6201 15.1172C62.7373 15 62.8281 14.8652 62.8926 14.7129C62.957 14.5605 62.9893 14.3965 62.9893 14.2207C62.9893 14.0449 62.957 13.8809 62.8926 13.7285C62.8281 13.5762 62.7373 13.4443 62.6201 13.333C62.5088 13.2158 62.377 13.125 62.2246 13.0605C62.0723 12.9961 61.9082 12.9639 61.7324 12.9639H59.21C58.6885 12.9639 58.1992 12.8643 57.7422 12.665C57.2852 12.4658 56.8838 12.1963 56.5381 11.8564C56.1982 11.5107 55.9287 11.1094 55.7295 10.6523C55.5303 10.1895 55.4307 9.69727 55.4307 9.17578ZM76.0322 18H75.4521L74.5205 16.708C74.292 16.9131 74.0488 17.1064 73.791 17.2881C73.5391 17.4639 73.2725 17.6191 72.9912 17.7539C72.71 17.8828 72.4199 17.9854 72.1211 18.0615C71.8281 18.1377 71.5293 18.1758 71.2246 18.1758C70.5625 18.1758 69.9385 18.0645 69.3525 17.8418C68.7725 17.6191 68.2627 17.2969 67.8232 16.875C67.3896 16.4473 67.0469 15.9258 66.7949 15.3105C66.543 14.6953 66.417 13.9951 66.417 13.21C66.417 12.4775 66.543 11.8066 66.7949 11.1973C67.0469 10.582 67.3896 10.0547 67.8232 9.61523C68.2627 9.17578 68.7725 8.83594 69.3525 8.5957C69.9385 8.34961 70.5625 8.22656 71.2246 8.22656C71.5293 8.22656 71.8311 8.26465 72.1299 8.34082C72.4287 8.41699 72.7188 8.52246 73 8.65723C73.2812 8.79199 73.5479 8.9502 73.7998 9.13184C74.0576 9.31348 74.2979 9.50977 74.5205 9.7207L75.4521 8.60449H76.0322V18ZM73.6152 13.21C73.6152 12.8818 73.5508 12.5654 73.4219 12.2607C73.2988 11.9502 73.1289 11.6777 72.9121 11.4434C72.6953 11.2031 72.4404 11.0127 72.1475 10.8721C71.8604 10.7256 71.5527 10.6523 71.2246 10.6523C70.8965 10.6523 70.5859 10.708 70.293 10.8193C70.0059 10.9307 69.7539 11.0947 69.5371 11.3115C69.3262 11.5283 69.1592 11.7979 69.0361 12.1201C68.9131 12.4365 68.8516 12.7998 68.8516 13.21C68.8516 13.6201 68.9131 13.9863 69.0361 14.3086C69.1592 14.625 69.3262 14.8916 69.5371 15.1084C69.7539 15.3252 70.0059 15.4893 70.293 15.6006C70.5859 15.7119 70.8965 15.7676 71.2246 15.7676C71.5527 15.7676 71.8604 15.6973 72.1475 15.5566C72.4404 15.4102 72.6953 15.2197 72.9121 14.9854C73.1289 14.7451 73.2988 14.4727 73.4219 14.168C73.5508 13.8574 73.6152 13.5381 73.6152 13.21ZM87.291 13.21C87.291 13.9482 87.165 14.6221 86.9131 15.2314C86.6611 15.8408 86.3184 16.3652 85.8848 16.8047C85.4512 17.2383 84.9414 17.5752 84.3555 17.8154C83.7754 18.0557 83.1514 18.1758 82.4834 18.1758C81.8213 18.1758 81.1973 18.0527 80.6113 17.8066C80.0312 17.5605 79.5215 17.2178 79.082 16.7783C78.6484 16.3389 78.3057 15.8174 78.0537 15.2139C77.8018 14.6045 77.6758 13.9365 77.6758 13.21V4.84277H80.084V9.2373C80.2129 9.07324 80.3682 8.92676 80.5498 8.79785C80.7373 8.66895 80.9365 8.56348 81.1475 8.48145C81.3643 8.39941 81.5869 8.33789 81.8154 8.29688C82.0439 8.25 82.2666 8.22656 82.4834 8.22656C83.1514 8.22656 83.7754 8.35254 84.3555 8.60449C84.9414 8.85059 85.4512 9.19629 85.8848 9.6416C86.3184 10.0869 86.6611 10.6143 86.9131 11.2236C87.165 11.8271 87.291 12.4893 87.291 13.21ZM84.874 13.21C84.874 12.8467 84.8096 12.5098 84.6807 12.1992C84.5576 11.8828 84.3877 11.6104 84.1709 11.3818C83.9541 11.1533 83.6992 10.9746 83.4062 10.8457C83.1191 10.7168 82.8115 10.6523 82.4834 10.6523C82.1553 10.6523 81.8447 10.7256 81.5518 10.8721C81.2646 11.0127 81.0127 11.2031 80.7959 11.4434C80.5791 11.6777 80.4092 11.9502 80.2861 12.2607C80.1631 12.5654 80.1016 12.8818 80.1016 13.21C80.1016 13.5732 80.1631 13.9102 80.2861 14.2207C80.4092 14.5312 80.5791 14.8008 80.7959 15.0293C81.0127 15.2578 81.2646 15.4395 81.5518 15.5742C81.8447 15.7031 82.1553 15.7676 82.4834 15.7676C82.8115 15.7676 83.1191 15.7031 83.4062 15.5742C83.6992 15.4395 83.9541 15.2578 84.1709 15.0293C84.3877 14.8008 84.5576 14.5312 84.6807 14.2207C84.8096 13.9102 84.874 13.5732 84.874 13.21ZM97.7236 13.21C97.7236 13.9131 97.5977 14.5693 97.3457 15.1787C97.0938 15.7822 96.751 16.3066 96.3174 16.752C95.8838 17.1914 95.374 17.54 94.7881 17.7979C94.208 18.0498 93.584 18.1758 92.916 18.1758C92.2539 18.1758 91.6299 18.0498 91.0439 17.7979C90.4639 17.54 89.9541 17.1914 89.5146 16.752C89.0811 16.3066 88.7383 15.7822 88.4863 15.1787C88.2344 14.5693 88.1084 13.9131 88.1084 13.21C88.1084 12.4951 88.2344 11.833 88.4863 11.2236C88.7383 10.6143 89.0811 10.0898 89.5146 9.65039C89.9541 9.20508 90.4639 8.85645 91.0439 8.60449C91.6299 8.35254 92.2539 8.22656 92.916 8.22656C93.584 8.22656 94.208 8.34668 94.7881 8.58691C95.374 8.82129 95.8838 9.1582 96.3174 9.59766C96.751 10.0312 97.0938 10.5557 97.3457 11.1709C97.5977 11.7803 97.7236 12.46 97.7236 13.21ZM95.3066 13.21C95.3066 12.8232 95.2422 12.4746 95.1133 12.1641C94.9902 11.8477 94.8203 11.5781 94.6035 11.3555C94.3867 11.127 94.1318 10.9541 93.8389 10.8369C93.5518 10.7139 93.2441 10.6523 92.916 10.6523C92.5879 10.6523 92.2773 10.7139 91.9844 10.8369C91.6973 10.9541 91.4453 11.127 91.2285 11.3555C91.0176 11.5781 90.8506 11.8477 90.7275 12.1641C90.6045 12.4746 90.543 12.8232 90.543 13.21C90.543 13.5732 90.6045 13.9102 90.7275 14.2207C90.8506 14.5312 91.0176 14.8008 91.2285 15.0293C91.4453 15.2578 91.6973 15.4395 91.9844 15.5742C92.2773 15.7031 92.5879 15.7676 92.916 15.7676C93.2441 15.7676 93.5518 15.7061 93.8389 15.583C94.1318 15.46 94.3867 15.2871 94.6035 15.0645C94.8203 14.8418 94.9902 14.5723 95.1133 14.2559C95.2422 13.9395 95.3066 13.5908 95.3066 13.21ZM101.45 18H99.0508V8.58691H99.6309L100.422 9.70312C100.809 9.35156 101.248 9.08203 101.74 8.89453C102.232 8.70117 102.742 8.60449 103.27 8.60449H105.388V10.9951H103.27C103.018 10.9951 102.78 11.042 102.558 11.1357C102.335 11.2295 102.142 11.3584 101.978 11.5225C101.813 11.6865 101.685 11.8799 101.591 12.1025C101.497 12.3252 101.45 12.5625 101.45 12.8145V18ZM110.072 15.6973C110.166 15.7266 110.26 15.7471 110.354 15.7588C110.447 15.7646 110.541 15.7676 110.635 15.7676C110.869 15.7676 111.095 15.7354 111.312 15.6709C111.528 15.6064 111.73 15.5156 111.918 15.3984C112.111 15.2754 112.281 15.1289 112.428 14.959C112.58 14.7832 112.703 14.5898 112.797 14.3789L114.555 16.1455C114.332 16.4619 114.074 16.7461 113.781 16.998C113.494 17.25 113.181 17.4639 112.841 17.6396C112.507 17.8154 112.152 17.9473 111.777 18.0352C111.408 18.1289 111.027 18.1758 110.635 18.1758C109.973 18.1758 109.349 18.0527 108.763 17.8066C108.183 17.5605 107.673 17.2178 107.233 16.7783C106.8 16.3389 106.457 15.8174 106.205 15.2139C105.953 14.6045 105.827 13.9365 105.827 13.21C105.827 12.4658 105.953 11.7861 106.205 11.1709C106.457 10.5557 106.8 10.0312 107.233 9.59766C107.673 9.16406 108.183 8.82715 108.763 8.58691C109.349 8.34668 109.973 8.22656 110.635 8.22656C111.027 8.22656 111.411 8.27344 111.786 8.36719C112.161 8.46094 112.516 8.5957 112.85 8.77148C113.189 8.94727 113.506 9.16406 113.799 9.42188C114.092 9.67383 114.35 9.95801 114.572 10.2744L110.072 15.6973ZM111.303 10.749C111.191 10.708 111.08 10.6816 110.969 10.6699C110.863 10.6582 110.752 10.6523 110.635 10.6523C110.307 10.6523 109.996 10.7139 109.703 10.8369C109.416 10.9541 109.164 11.124 108.947 11.3467C108.736 11.5693 108.569 11.8389 108.446 12.1553C108.323 12.4658 108.262 12.8174 108.262 13.21C108.262 13.2979 108.265 13.3975 108.271 13.5088C108.282 13.6201 108.297 13.7344 108.314 13.8516C108.338 13.9629 108.364 14.0713 108.394 14.1768C108.423 14.2822 108.461 14.376 108.508 14.458L111.303 10.749ZM120.953 18H115.469V15.6094H120.953C121.117 15.6094 121.258 15.5508 121.375 15.4336C121.492 15.3164 121.551 15.1758 121.551 15.0117C121.551 14.8418 121.492 14.7305 121.375 14.6777C121.258 14.625 121.117 14.5986 120.953 14.5986H118.457C118.041 14.5986 117.651 14.5195 117.288 14.3613C116.925 14.2031 116.608 13.9893 116.339 13.7197C116.069 13.4443 115.855 13.125 115.697 12.7617C115.545 12.3984 115.469 12.0088 115.469 11.5928C115.469 11.1768 115.545 10.7871 115.697 10.4238C115.855 10.0605 116.069 9.74414 116.339 9.47461C116.608 9.20508 116.925 8.99414 117.288 8.8418C117.651 8.68359 118.041 8.60449 118.457 8.60449H123.317V10.9951H118.457C118.293 10.9951 118.152 11.0537 118.035 11.1709C117.918 11.2881 117.859 11.4287 117.859 11.5928C117.859 11.7627 117.918 11.9092 118.035 12.0322C118.152 12.1494 118.293 12.208 118.457 12.208H120.953C121.363 12.208 121.75 12.2783 122.113 12.4189C122.477 12.5537 122.793 12.7441 123.062 12.9902C123.332 13.2363 123.546 13.5322 123.704 13.8779C123.862 14.2236 123.941 14.6016 123.941 15.0117C123.941 15.4277 123.862 15.8174 123.704 16.1807C123.546 16.5381 123.332 16.8545 123.062 17.1299C122.793 17.3994 122.477 17.6133 122.113 17.7715C121.75 17.9238 121.363 18 120.953 18Z" fill="#FCD063"/>
<path d="M66.25 36.2207C66.25 36.7422 66.1504 37.2314 65.9512 37.6885C65.752 38.1455 65.4795 38.5469 65.1338 38.8926C64.7939 39.2324 64.3955 39.502 63.9385 39.7012C63.4814 39.9004 62.9922 40 62.4707 40H56.1689V27.3965H62.4707C62.9922 27.3965 63.4814 27.4961 63.9385 27.6953C64.3955 27.8945 64.7939 28.167 65.1338 28.5127C65.4795 28.8525 65.752 29.251 65.9512 29.708C66.1504 30.165 66.25 30.6543 66.25 31.1758C66.25 31.4102 66.2178 31.6504 66.1533 31.8965C66.0889 32.1426 65.998 32.3799 65.8809 32.6084C65.7637 32.8369 65.623 33.0449 65.459 33.2324C65.2949 33.4199 65.1133 33.5752 64.9141 33.6982C65.1191 33.8096 65.3037 33.9619 65.4678 34.1553C65.6318 34.3428 65.7725 34.5508 65.8896 34.7793C66.0068 35.0078 66.0947 35.248 66.1533 35.5C66.2178 35.7461 66.25 35.9863 66.25 36.2207ZM58.6914 37.4775H62.4707C62.6465 37.4775 62.8105 37.4453 62.9629 37.3809C63.1152 37.3164 63.2471 37.2285 63.3584 37.1172C63.4756 37 63.5664 36.8652 63.6309 36.7129C63.6953 36.5605 63.7275 36.3965 63.7275 36.2207C63.7275 36.0449 63.6953 35.8809 63.6309 35.7285C63.5664 35.5762 63.4756 35.4443 63.3584 35.333C63.2471 35.2158 63.1152 35.125 62.9629 35.0605C62.8105 34.9961 62.6465 34.9639 62.4707 34.9639H58.6914V37.4775ZM58.6914 32.4414H62.4707C62.6465 32.4414 62.8105 32.4092 62.9629 32.3447C63.1152 32.2803 63.2471 32.1924 63.3584 32.0811C63.4756 31.9639 63.5664 31.8291 63.6309 31.6768C63.6953 31.5186 63.7275 31.3516 63.7275 31.1758C63.7275 31 63.6953 30.8359 63.6309 30.6836C63.5664 30.5312 63.4756 30.3994 63.3584 30.2881C63.2471 30.1709 63.1152 30.0801 62.9629 30.0156C62.8105 29.9512 62.6465 29.9189 62.4707 29.9189H58.6914V32.4414ZM70.3018 40H67.9023V30.5869H68.4824L69.2734 31.7031C69.6602 31.3516 70.0996 31.082 70.5918 30.8945C71.084 30.7012 71.5938 30.6045 72.1211 30.6045H74.2393V32.9951H72.1211C71.8691 32.9951 71.6318 33.042 71.4092 33.1357C71.1865 33.2295 70.9932 33.3584 70.8291 33.5225C70.665 33.6865 70.5361 33.8799 70.4424 34.1025C70.3486 34.3252 70.3018 34.5625 70.3018 34.8145V40ZM84.2939 40H83.7139L82.7822 38.708C82.5537 38.9131 82.3105 39.1064 82.0527 39.2881C81.8008 39.4639 81.5342 39.6191 81.2529 39.7539C80.9717 39.8828 80.6816 39.9854 80.3828 40.0615C80.0898 40.1377 79.791 40.1758 79.4863 40.1758C78.8242 40.1758 78.2002 40.0645 77.6143 39.8418C77.0342 39.6191 76.5244 39.2969 76.085 38.875C75.6514 38.4473 75.3086 37.9258 75.0566 37.3105C74.8047 36.6953 74.6787 35.9951 74.6787 35.21C74.6787 34.4775 74.8047 33.8066 75.0566 33.1973C75.3086 32.582 75.6514 32.0547 76.085 31.6152C76.5244 31.1758 77.0342 30.8359 77.6143 30.5957C78.2002 30.3496 78.8242 30.2266 79.4863 30.2266C79.791 30.2266 80.0928 30.2646 80.3916 30.3408C80.6904 30.417 80.9805 30.5225 81.2617 30.6572C81.543 30.792 81.8096 30.9502 82.0615 31.1318C82.3193 31.3135 82.5596 31.5098 82.7822 31.7207L83.7139 30.6045H84.2939V40ZM81.877 35.21C81.877 34.8818 81.8125 34.5654 81.6836 34.2607C81.5605 33.9502 81.3906 33.6777 81.1738 33.4434C80.957 33.2031 80.7021 33.0127 80.4092 32.8721C80.1221 32.7256 79.8145 32.6523 79.4863 32.6523C79.1582 32.6523 78.8477 32.708 78.5547 32.8193C78.2676 32.9307 78.0156 33.0947 77.7988 33.3115C77.5879 33.5283 77.4209 33.7979 77.2979 34.1201C77.1748 34.4365 77.1133 34.7998 77.1133 35.21C77.1133 35.6201 77.1748 35.9863 77.2979 36.3086C77.4209 36.625 77.5879 36.8916 77.7988 37.1084C78.0156 37.3252 78.2676 37.4893 78.5547 37.6006C78.8477 37.7119 79.1582 37.7676 79.4863 37.7676C79.8145 37.7676 80.1221 37.6973 80.4092 37.5566C80.7021 37.4102 80.957 37.2197 81.1738 36.9854C81.3906 36.7451 81.5605 36.4727 81.6836 36.168C81.8125 35.8574 81.877 35.5381 81.877 35.21ZM91.2988 40H85.8145V37.6094H91.2988C91.4629 37.6094 91.6035 37.5508 91.7207 37.4336C91.8379 37.3164 91.8965 37.1758 91.8965 37.0117C91.8965 36.8418 91.8379 36.7305 91.7207 36.6777C91.6035 36.625 91.4629 36.5986 91.2988 36.5986H88.8027C88.3867 36.5986 87.9971 36.5195 87.6338 36.3613C87.2705 36.2031 86.9541 35.9893 86.6846 35.7197C86.415 35.4443 86.2012 35.125 86.043 34.7617C85.8906 34.3984 85.8145 34.0088 85.8145 33.5928C85.8145 33.1768 85.8906 32.7871 86.043 32.4238C86.2012 32.0605 86.415 31.7441 86.6846 31.4746C86.9541 31.2051 87.2705 30.9941 87.6338 30.8418C87.9971 30.6836 88.3867 30.6045 88.8027 30.6045H93.6631V32.9951H88.8027C88.6387 32.9951 88.498 33.0537 88.3809 33.1709C88.2637 33.2881 88.2051 33.4287 88.2051 33.5928C88.2051 33.7627 88.2637 33.9092 88.3809 34.0322C88.498 34.1494 88.6387 34.208 88.8027 34.208H91.2988C91.709 34.208 92.0957 34.2783 92.459 34.4189C92.8223 34.5537 93.1387 34.7441 93.4082 34.9902C93.6777 35.2363 93.8916 35.5322 94.0498 35.8779C94.208 36.2236 94.2871 36.6016 94.2871 37.0117C94.2871 37.4277 94.208 37.8174 94.0498 38.1807C93.8916 38.5381 93.6777 38.8545 93.4082 39.1299C93.1387 39.3994 92.8223 39.6133 92.459 39.7715C92.0957 39.9238 91.709 40 91.2988 40ZM98.4004 28.0293C98.4004 28.252 98.3564 28.46 98.2686 28.6533C98.1865 28.8467 98.0723 29.0166 97.9258 29.1631C97.7793 29.3037 97.6064 29.418 97.4072 29.5059C97.2139 29.5879 97.0059 29.6289 96.7832 29.6289C96.5605 29.6289 96.3496 29.5879 96.1504 29.5059C95.957 29.418 95.7871 29.3037 95.6406 29.1631C95.5 29.0166 95.3857 28.8467 95.2979 28.6533C95.2158 28.46 95.1748 28.252 95.1748 28.0293C95.1748 27.8125 95.2158 27.6074 95.2979 27.4141C95.3857 27.2148 95.5 27.0449 95.6406 26.9043C95.7871 26.7578 95.957 26.6436 96.1504 26.5615C96.3496 26.4736 96.5605 26.4297 96.7832 26.4297C97.0059 26.4297 97.2139 26.4736 97.4072 26.5615C97.6064 26.6436 97.7793 26.7578 97.9258 26.9043C98.0723 27.0449 98.1865 27.2148 98.2686 27.4141C98.3564 27.6074 98.4004 27.8125 98.4004 28.0293ZM97.9873 40H95.5703V30.5869H97.9873V40ZM102.241 40H99.8242V26.8428H102.241V40ZM107.822 37.6973C107.916 37.7266 108.01 37.7471 108.104 37.7588C108.197 37.7646 108.291 37.7676 108.385 37.7676C108.619 37.7676 108.845 37.7354 109.062 37.6709C109.278 37.6064 109.48 37.5156 109.668 37.3984C109.861 37.2754 110.031 37.1289 110.178 36.959C110.33 36.7832 110.453 36.5898 110.547 36.3789L112.305 38.1455C112.082 38.4619 111.824 38.7461 111.531 38.998C111.244 39.25 110.931 39.4639 110.591 39.6396C110.257 39.8154 109.902 39.9473 109.527 40.0352C109.158 40.1289 108.777 40.1758 108.385 40.1758C107.723 40.1758 107.099 40.0527 106.513 39.8066C105.933 39.5605 105.423 39.2178 104.983 38.7783C104.55 38.3389 104.207 37.8174 103.955 37.2139C103.703 36.6045 103.577 35.9365 103.577 35.21C103.577 34.4658 103.703 33.7861 103.955 33.1709C104.207 32.5557 104.55 32.0312 104.983 31.5977C105.423 31.1641 105.933 30.8271 106.513 30.5869C107.099 30.3467 107.723 30.2266 108.385 30.2266C108.777 30.2266 109.161 30.2734 109.536 30.3672C109.911 30.4609 110.266 30.5957 110.6 30.7715C110.939 30.9473 111.256 31.1641 111.549 31.4219C111.842 31.6738 112.1 31.958 112.322 32.2744L107.822 37.6973ZM109.053 32.749C108.941 32.708 108.83 32.6816 108.719 32.6699C108.613 32.6582 108.502 32.6523 108.385 32.6523C108.057 32.6523 107.746 32.7139 107.453 32.8369C107.166 32.9541 106.914 33.124 106.697 33.3467C106.486 33.5693 106.319 33.8389 106.196 34.1553C106.073 34.4658 106.012 34.8174 106.012 35.21C106.012 35.2979 106.015 35.3975 106.021 35.5088C106.032 35.6201 106.047 35.7344 106.064 35.8516C106.088 35.9629 106.114 36.0713 106.144 36.1768C106.173 36.2822 106.211 36.376 106.258 36.458L109.053 32.749ZM116.365 28.0293C116.365 28.252 116.321 28.46 116.233 28.6533C116.151 28.8467 116.037 29.0166 115.891 29.1631C115.744 29.3037 115.571 29.418 115.372 29.5059C115.179 29.5879 114.971 29.6289 114.748 29.6289C114.525 29.6289 114.314 29.5879 114.115 29.5059C113.922 29.418 113.752 29.3037 113.605 29.1631C113.465 29.0166 113.351 28.8467 113.263 28.6533C113.181 28.46 113.14 28.252 113.14 28.0293C113.14 27.8125 113.181 27.6074 113.263 27.4141C113.351 27.2148 113.465 27.0449 113.605 26.9043C113.752 26.7578 113.922 26.6436 114.115 26.5615C114.314 26.4736 114.525 26.4297 114.748 26.4297C114.971 26.4297 115.179 26.4736 115.372 26.5615C115.571 26.6436 115.744 26.7578 115.891 26.9043C116.037 27.0449 116.151 27.2148 116.233 27.4141C116.321 27.6074 116.365 27.8125 116.365 28.0293ZM115.952 40H113.535V30.5869H115.952V40ZM120.188 40H117.789V30.5869H118.369L119.16 31.7031C119.547 31.3516 119.986 31.082 120.479 30.8945C120.971 30.7012 121.48 30.6045 122.008 30.6045H124.126V32.9951H122.008C121.756 32.9951 121.519 33.042 121.296 33.1357C121.073 33.2295 120.88 33.3584 120.716 33.5225C120.552 33.6865 120.423 33.8799 120.329 34.1025C120.235 34.3252 120.188 34.5625 120.188 34.8145V40ZM134.163 35.21C134.163 35.9131 134.037 36.5693 133.785 37.1787C133.533 37.7822 133.19 38.3066 132.757 38.752C132.323 39.1914 131.813 39.54 131.228 39.7979C130.647 40.0498 130.023 40.1758 129.355 40.1758C128.693 40.1758 128.069 40.0498 127.483 39.7979C126.903 39.54 126.394 39.1914 125.954 38.752C125.521 38.3066 125.178 37.7822 124.926 37.1787C124.674 36.5693 124.548 35.9131 124.548 35.21C124.548 34.4951 124.674 33.833 124.926 33.2236C125.178 32.6143 125.521 32.0898 125.954 31.6504C126.394 31.2051 126.903 30.8564 127.483 30.6045C128.069 30.3525 128.693 30.2266 129.355 30.2266C130.023 30.2266 130.647 30.3467 131.228 30.5869C131.813 30.8213 132.323 31.1582 132.757 31.5977C133.19 32.0312 133.533 32.5557 133.785 33.1709C134.037 33.7803 134.163 34.46 134.163 35.21ZM131.746 35.21C131.746 34.8232 131.682 34.4746 131.553 34.1641C131.43 33.8477 131.26 33.5781 131.043 33.3555C130.826 33.127 130.571 32.9541 130.278 32.8369C129.991 32.7139 129.684 32.6523 129.355 32.6523C129.027 32.6523 128.717 32.7139 128.424 32.8369C128.137 32.9541 127.885 33.127 127.668 33.3555C127.457 33.5781 127.29 33.8477 127.167 34.1641C127.044 34.4746 126.982 34.8232 126.982 35.21C126.982 35.5732 127.044 35.9102 127.167 36.2207C127.29 36.5312 127.457 36.8008 127.668 37.0293C127.885 37.2578 128.137 37.4395 128.424 37.5742C128.717 37.7031 129.027 37.7676 129.355 37.7676C129.684 37.7676 129.991 37.7061 130.278 37.583C130.571 37.46 130.826 37.2871 131.043 37.0645C131.26 36.8418 131.43 36.5723 131.553 36.2559C131.682 35.9395 131.746 35.5908 131.746 35.21ZM140.658 40H135.174V37.6094H140.658C140.822 37.6094 140.963 37.5508 141.08 37.4336C141.197 37.3164 141.256 37.1758 141.256 37.0117C141.256 36.8418 141.197 36.7305 141.08 36.6777C140.963 36.625 140.822 36.5986 140.658 36.5986H138.162C137.746 36.5986 137.356 36.5195 136.993 36.3613C136.63 36.2031 136.313 35.9893 136.044 35.7197C135.774 35.4443 135.561 35.125 135.402 34.7617C135.25 34.3984 135.174 34.0088 135.174 33.5928C135.174 33.1768 135.25 32.7871 135.402 32.4238C135.561 32.0605 135.774 31.7441 136.044 31.4746C136.313 31.2051 136.63 30.9941 136.993 30.8418C137.356 30.6836 137.746 30.6045 138.162 30.6045H143.022V32.9951H138.162C137.998 32.9951 137.857 33.0537 137.74 33.1709C137.623 33.2881 137.564 33.4287 137.564 33.5928C137.564 33.7627 137.623 33.9092 137.74 34.0322C137.857 34.1494 137.998 34.208 138.162 34.208H140.658C141.068 34.208 141.455 34.2783 141.818 34.4189C142.182 34.5537 142.498 34.7441 142.768 34.9902C143.037 35.2363 143.251 35.5322 143.409 35.8779C143.567 36.2236 143.646 36.6016 143.646 37.0117C143.646 37.4277 143.567 37.8174 143.409 38.1807C143.251 38.5381 143.037 38.8545 142.768 39.1299C142.498 39.3994 142.182 39.6133 141.818 39.7715C141.455 39.9238 141.068 40 140.658 40Z" fill="#252525"/>
<g clip-path="url(#clip0_64_7)">
<path d="M29 3.99999C33.6289 3.99867 38.115 5.60248 41.6939 8.53813C45.2728 11.4738 47.723 15.5596 48.627 20.0994C49.531 24.6391 48.8329 29.3519 46.6515 33.4345C44.4701 37.5172 40.9406 40.7172 36.6643 42.4891C32.388 44.2611 27.6296 44.4954 23.1999 43.1521C18.7702 41.8088 14.9434 38.971 12.3715 35.1224C9.79964 31.2737 8.64189 26.6523 9.09555 22.0457C9.54921 17.4391 11.5862 13.1324 14.8594 9.85937C16.7138 7.99878 18.9178 6.52325 21.3446 5.51766C23.7714 4.51208 26.3731 3.9963 29 3.99999V3.99999ZM26.1061 23.0169C27.0567 22.3659 27.5352 21.5163 27.4538 19.5729V14.5762C27.4538 13.8795 26.1778 13.7949 26.1159 14.5762L26.0671 18.6289C26.0671 18.78 26.0071 18.9249 25.9002 19.0317C25.7934 19.1385 25.6485 19.1986 25.4974 19.1986C25.3463 19.1986 25.2014 19.1385 25.0946 19.0317C24.9878 18.9249 24.9278 18.78 24.9278 18.6289L24.9766 14.4362C24.9766 13.6875 23.7494 13.6126 23.7364 14.4362C23.7364 15.6016 23.6875 17.4668 23.6875 18.6289C23.6991 18.6997 23.6952 18.7722 23.676 18.8413C23.6568 18.9104 23.6228 18.9746 23.5763 19.0292C23.5299 19.0839 23.4721 19.1278 23.407 19.158C23.3419 19.1881 23.271 19.2037 23.1992 19.2037C23.1275 19.2037 23.0566 19.1881 22.9915 19.158C22.9264 19.1278 22.8686 19.0839 22.8222 19.0292C22.7757 18.9746 22.7417 18.9104 22.7225 18.8413C22.7033 18.7722 22.6994 18.6997 22.711 18.6289L22.7598 14.4655C22.7496 14.3468 22.7083 14.2329 22.6402 14.1351C22.5722 14.0374 22.4796 13.9592 22.3718 13.9085C22.2641 13.8577 22.1449 13.8362 22.0262 13.8459C21.9074 13.8557 21.7934 13.8965 21.6953 13.9642C21.2461 14.2506 21.3373 14.8268 21.3177 15.3151L21.1615 20.097C21.1843 21.487 21.5489 22.6165 22.6394 23.0983C22.8485 23.1814 23.0672 23.2383 23.2904 23.2676L22.9226 33.0527C22.9182 33.2148 22.9462 33.3762 23.0047 33.5274C23.0633 33.6786 23.1513 33.8166 23.2636 33.9335C23.376 34.0504 23.5105 34.1439 23.6592 34.2083C23.808 34.2728 23.9681 34.3071 24.1302 34.3092H24.28C24.4621 34.3063 24.6418 34.2673 24.8088 34.1946C24.9757 34.1219 25.1267 34.0168 25.2528 33.8855C25.379 33.7542 25.478 33.5992 25.544 33.4294C25.61 33.2597 25.6417 33.0785 25.6374 32.8965L25.3119 23.2643C25.5913 23.2347 25.8623 23.1507 26.1094 23.0169H26.1061ZM31.9655 32.7012L31.9492 24.1042C28.2741 21.9818 29.446 13.8047 33.1211 13.8503C37.5873 13.9023 38.1179 23.0657 34.2767 24.0716L34.5599 32.7435C34.6153 34.7389 31.9558 34.9245 31.9558 32.7012H31.9655ZM41.321 11.679C38.4685 8.83172 34.7171 7.06147 30.7058 6.66988C26.6945 6.27829 22.6715 7.28958 19.3222 9.53146C15.9729 11.7733 13.5045 15.1071 12.3375 18.9648C11.1705 22.8226 11.3771 26.9656 12.9222 30.688C14.4672 34.4105 17.2551 37.4821 20.8108 39.3796C24.3666 41.2771 28.4702 41.8831 32.4226 41.0943C36.3751 40.3055 39.9318 38.1708 42.4868 35.0538C45.0418 31.9368 46.4371 28.0304 46.4349 24C46.4365 21.7106 45.9856 19.4435 45.1079 17.329C44.2303 15.2145 42.9433 13.2944 41.321 11.679V11.679Z" fill="#FCD063"/>
</g>
<defs>
<clipPath id="clip0_64_7">
<rect width="40" height="40" fill="white" transform="translate(9 4)"/>
</clipPath>
</defs>
</svg>
