<svg width="25" height="27" viewBox="0 0 25 27" fill="none" xmlns="http://www.w3.org/2000/svg">
<g clip-path="url(#clip0_9_240)">
<g clip-path="url(#clip1_9_240)">
<path fill-rule="evenodd" clip-rule="evenodd" d="M0 9.80395L15.2559 -1L25 5.84009L23.4283 6.36304L16.6615 1.61914L16.5816 1.55981C16.2833 1.3563 15.8841 1.24569 15.4718 1.25228C15.0594 1.25888 14.6676 1.38213 14.3824 1.59497L13.8318 2.00366L13.8134 1.99048L11.2297 3.94604L1.33489 10.7378L0 9.80395ZM4.12463 15.886L4.03236 16.3079C3.78937 17.4329 3.39567 19.261 3.23573 19.907C3.22484 19.9457 3.20727 19.9834 3.18344 20.019C3.16535 20.0532 3.1382 20.0845 3.10347 20.1113C2.92066 20.2775 2.75515 20.453 2.60827 20.6365C2.50095 20.7655 2.42211 20.9056 2.37451 21.0518C2.35122 21.1241 2.35122 21.1992 2.37451 21.2715C2.40077 21.3378 2.4518 21.3978 2.52215 21.4451C4.02313 22.5217 5.61639 23.6094 7.07431 24.708C7.29277 24.8525 7.55343 24.9606 7.83746 25.0245C8.1215 25.0883 8.42183 25.1063 8.71678 25.0771C9.26926 25.0263 9.81464 24.9418 10.3469 24.8245C10.9252 24.7334 11.4944 24.6152 12.0509 24.4707C12.6053 24.3184 13.1161 24.095 13.5581 23.8115L14.813 22.8755C14.83 22.8579 14.8496 22.8417 14.8714 22.8271V22.8271C14.9083 22.8008 15.016 22.7239 15.179 22.6206C16.0095 22.0405 17.0245 21.3264 16.4493 20.7332L16.0279 20.4321L15.7203 20.6299L15.3174 20.8694C15.1021 21.0034 14.9022 21.1309 14.7207 21.2583C14.5984 21.3457 14.4324 21.3948 14.2594 21.3948C14.0863 21.3948 13.9203 21.3457 13.798 21.2583C13.6756 21.1709 13.6069 21.0523 13.6069 20.9287C13.6069 20.8051 13.6756 20.6865 13.798 20.5991C13.9918 20.4607 14.2255 20.3113 14.4685 20.1597L14.4993 20.1421C15.3143 19.6257 16.2463 19.0435 15.7911 18.5601L15.2959 18.2063C15.179 18.292 15.056 18.3733 14.9329 18.4546C14.8099 18.5359 14.6254 18.6567 14.4654 18.7534L14.4254 18.7754C14.2163 18.9072 14.0194 19.0303 13.838 19.1599C13.7774 19.2032 13.7055 19.2375 13.6263 19.261C13.5471 19.2844 13.4623 19.2964 13.3766 19.2964C13.2909 19.2964 13.2061 19.2844 13.1269 19.261C13.0477 19.2375 12.9758 19.2032 12.9152 19.1599C12.8546 19.1166 12.8066 19.0652 12.7738 19.0087C12.741 18.9521 12.7241 18.8915 12.7241 18.8303C12.7241 18.7691 12.741 18.7085 12.7738 18.652C12.8066 18.5954 12.8546 18.544 12.9152 18.5007C13.1029 18.3667 13.3335 18.2195 13.5765 18.0613L13.6134 18.0371C14.4285 17.5229 15.3605 16.9385 14.9083 16.4551C14.7361 16.3342 14.5608 16.2134 14.3947 16.0881L13.0167 17.0725C12.8944 17.1599 12.7284 17.209 12.5554 17.209C12.3823 17.209 12.2164 17.1599 12.094 17.0725C11.9716 16.9851 11.9029 16.8665 11.9029 16.7429C11.9029 16.6193 11.9716 16.5007 12.094 16.4133L14.8622 14.4358C15.122 14.2599 15.321 14.0432 15.4435 13.803C15.5462 13.6054 15.5549 13.3892 15.4681 13.1877C15.4397 13.127 15.4015 13.0687 15.3543 13.0142C15.3089 12.9616 15.2553 12.913 15.1944 12.8691C15.1327 12.8244 15.0634 12.7853 14.9883 12.7527C14.9125 12.7202 14.8321 12.6937 14.7484 12.6736C14.4668 12.6132 14.1651 12.6209 13.8903 12.6956C13.5472 12.7926 13.2384 12.9427 12.986 13.135L6.33305 17.9097C6.21068 17.9971 6.04472 18.0462 5.87168 18.0462C5.69863 18.0462 5.53267 17.9971 5.41031 17.9097C5.28795 17.8223 5.21921 17.7037 5.21921 17.5801C5.21921 17.4565 5.28795 17.3379 5.41031 17.2505L5.69943 17.0461L4.11233 15.8882L4.12463 15.886ZM7.24656 15.9475L11.202 13.1218L11.1282 13.1064C10.602 12.9831 10.1383 12.7519 9.79467 12.4416C9.45104 12.1314 9.24269 11.7558 9.19555 11.3617C9.14841 10.9675 9.26456 10.5721 9.52955 10.2248C9.79454 9.8774 10.1967 9.59336 10.6859 9.408C11.1751 9.22264 11.7298 9.14415 12.281 9.18228C12.8322 9.22041 13.3556 9.37349 13.7859 9.62247C14.2163 9.87145 14.5346 10.2053 14.7014 10.5826C14.8681 10.9598 14.8759 11.3638 14.7238 11.7441C14.871 11.7592 15.0162 11.7835 15.1575 11.8167V11.8167C15.335 11.8584 15.5052 11.9144 15.665 11.9836C15.8265 12.0547 15.9761 12.1388 16.111 12.2341V12.2341C16.1695 12.276 16.225 12.32 16.2771 12.366L20.0295 9.63696C19.6927 9.38736 19.507 9.053 19.5128 8.70631C19.5185 8.35961 19.7152 8.0285 20.0603 7.78467L16.6277 5.27979C16.2786 5.52138 15.8101 5.65482 15.324 5.65112C14.838 5.64742 14.3736 5.50687 14.0317 5.26001V5.26001L4.61368 12.1616C4.9546 12.4084 5.14576 12.7411 5.14576 13.0878C5.14576 13.4345 4.9546 13.7672 4.61368 14.0139L7.26193 15.9475H7.24656ZM16.7138 14.0623C16.534 14.4664 16.217 14.8325 15.7911 15.1279L15.339 15.4487L15.8741 15.8311L15.9234 15.8706L15.9664 15.9124C16.2185 16.1294 16.3695 16.3972 16.3982 16.6785C16.4268 16.9597 16.3318 17.2404 16.1264 17.4812H16.1417C16.1774 17.4985 16.2114 17.5176 16.2432 17.5383L16.7661 17.9141C16.7849 17.9257 16.8014 17.939 16.8153 17.9536L16.8553 17.991C17.1503 18.2541 17.3051 18.5834 17.2921 18.9204C17.2676 19.1985 17.1379 19.4665 16.9168 19.696L17.4366 20.0652L17.4859 20.1069L17.5228 20.1443C18.7961 21.3879 17.3136 22.4229 16.1171 23.2578C16.0372 23.3259 15.9049 23.4094 15.8095 23.4775C15.3912 23.7896 14.8868 24.2114 14.4562 24.4883C13.2505 25.2683 12.0632 25.477 10.6884 25.7166C10.0748 25.8523 9.44448 25.9458 8.80598 25.9956C8.33049 26.0331 7.84929 25.9954 7.39643 25.8853C6.94357 25.7752 6.53014 25.5953 6.18541 25.3584L1.63939 22.1108C1.4103 21.958 1.24163 21.7648 1.15034 21.5505C1.06622 21.3296 1.05778 21.0975 1.12574 20.8738V20.8738C1.18821 20.6638 1.29175 20.4611 1.43332 20.2717C1.59774 20.0472 1.78916 19.8332 2.00541 19.6323C2.12229 19.1555 2.37758 17.9404 2.62057 16.8242C2.75898 16.1541 2.89432 15.5234 2.99582 15.0664L0.439838 13.2009L15.5635 2.2959L24.2464 8.63501L16.7138 14.0623Z" fill="#FFAD23"/>
</g>
</g>
<defs>
<clipPath id="clip0_9_240">
<rect width="25" height="27" fill="white"/>
</clipPath>
<clipPath id="clip1_9_240">
<rect width="25" height="27" fill="white" transform="translate(0 -1)"/>
</clipPath>
</defs>
</svg>
