<svg width="25" height="27" viewBox="0 0 25 27" fill="none" xmlns="http://www.w3.org/2000/svg">
<path fill-rule="evenodd" clip-rule="evenodd" d="M7.49105 24.8716L7.25301 18.0784L9.94873 17.9562C11.1003 18.1361 12.266 18.7886 13.4379 19.5519L15.5314 19.4573C16.4815 19.4804 17.0166 20.5457 16.1194 21.3021C15.4073 21.9454 14.4368 21.9547 13.4399 21.897C12.7543 21.8901 12.7604 22.9347 13.4745 22.9047C13.7227 22.9162 13.9913 22.8378 14.2253 22.8263C15.4643 22.7686 16.4754 22.455 17.0614 21.3159L17.3462 20.4719L20.4 18.5811C21.9381 17.9285 22.9736 19.5726 21.8709 20.9101C19.6798 22.8724 17.5578 24.6618 15.2344 26.0038C13.5579 27.2652 11.8368 27.3044 10.0789 26.2367L7.49105 24.8716ZM6.05062 14.5204H24.7477C24.8861 14.5204 25 14.6518 25 14.8063V16.0538C25 16.2083 24.8861 16.3397 24.7477 16.3397H6.05062C5.91227 16.3397 5.79834 16.2106 5.79834 16.0538V14.8063C5.79834 14.6495 5.91227 14.5204 6.05062 14.5204ZM16.1255 2.58955C21.2443 3.05304 25.5554 7.93005 24.9186 13.6718H5.88175C5.25309 7.89316 9.58049 3.00922 14.7359 2.58263V1.64643H13.9221C13.7797 1.64643 13.6617 1.51268 13.6617 1.35127V0.295158C13.6617 0.133743 13.7777 0 13.9221 0H16.9169C17.0593 0 17.1773 0.133743 17.1773 0.295158V1.35127C17.1773 1.51268 17.0593 1.64643 16.9169 1.64643H16.1255V2.58955ZM0 17.8455L6.41886 17.4627L6.7037 25.5911L0.284831 25.9716L0 17.8455Z" fill="#FFAD23"/>
</svg>
